<svg width="1280" height="802" viewBox="0 0 1280 802" fill="none" xmlns="http://www.w3.org/2000/svg">
<path d="M1311 809.108V439.23H610.057V21.5762C603.888 20.035 597.719 16.9527 591.55 15.4116C556.077 4.62347 520.605 0 482.048 0C455.83 0 429.611 4.62347 401.85 12.3293C377.174 20.035 352.498 30.8231 330.906 47.7759C309.314 63.1874 292.349 83.2225 278.469 107.881C264.588 132.54 258.419 160.28 258.419 194.186C258.419 229.632 263.046 261.997 272.299 294.361C281.553 326.725 298.518 359.09 318.568 394.536C355.582 459.265 448.118 582.557 509.809 651.91L455.83 705.85C355.582 628.792 232.2 490.088 193.644 439.23H0V809.108H239.912V1240.63C239.912 1330.02 256.877 1414.78 290.807 1493.38C324.737 1571.98 371.005 1641.33 431.153 1699.9C489.76 1760 559.162 1806.24 637.818 1840.14C716.473 1874.05 801.298 1891 890.75 1891H1188.41V1521.12H892.292C853.736 1521.12 816.721 1513.42 782.791 1498C748.861 1482.59 718.016 1462.56 693.339 1437.9C668.663 1411.7 648.614 1382.42 633.191 1348.51C619.31 1314.61 611.599 1277.62 611.599 1239.09V807.566H1188.41L1311 809.108Z" fill="#E1E5F9"/>
</svg>
