<svg width="100" height="32" viewBox="0 0 100 32" fill="none" xmlns="http://www.w3.org/2000/svg">
<path d="M45.1199 31.9372V27.3568L47.6947 27.3983C48.1515 27.3983 48.5875 27.3154 49.0028 27.1703C49.4181 27.0252 49.8126 26.818 50.1656 26.5485C50.5186 26.2791 50.8301 25.9682 51.1 25.6159C51.3699 25.2636 51.5983 24.8698 51.7645 24.4345C51.2454 24.6625 50.7262 24.8698 50.2071 25.0977C49.688 25.3257 49.1482 25.4294 48.6083 25.4294C47.487 25.4294 46.4281 25.2221 45.4521 24.8283C44.4762 24.4345 43.6041 23.8542 42.8566 23.1081C42.1091 22.362 41.5277 21.4708 41.1124 20.3931C40.6972 19.3361 40.4688 18.134 40.4688 16.8075V6.58984H45.0992V16.8075C45.0992 17.4708 45.1822 18.0303 45.3691 18.5278C45.556 19.0252 45.8051 19.419 46.1166 19.7506C46.4281 20.0822 46.8018 20.3309 47.2171 20.476C47.7154 20.6625 48.2345 20.7454 48.8159 20.7039C49.0859 20.6832 49.3351 20.6418 49.5842 20.5381C50.1449 20.3102 50.6224 19.9578 51.0169 19.5019C51.453 19.0044 51.7437 18.4034 51.9306 17.7195C52.0136 17.4293 52.0344 17.1184 52.0344 16.8075V6.61057H56.6648V22.6521C56.644 23.9371 56.4156 25.1599 55.9173 26.2791C55.4397 27.419 54.7753 28.3931 53.9447 29.2429C53.1141 30.0926 52.1382 30.7558 51.0169 31.2532C49.9164 31.7506 48.7121 31.9994 47.4455 31.9994L45.1199 31.9372Z" fill="#364FD9"/>
<path d="M78.4064 15.7082C78.4064 17.0968 78.1572 18.3818 77.6589 19.5632C77.1605 20.7445 76.4961 21.7808 75.6447 22.6513C74.7934 23.5218 73.7967 24.2057 72.6547 24.7031C71.5127 25.2005 70.2876 25.4492 68.9587 25.4492C67.6506 25.4492 66.4255 25.2005 65.2834 24.7031C64.1414 24.2057 63.1447 23.5218 62.2726 22.6513C61.4213 21.7808 60.7361 20.7445 60.2377 19.5632C59.7394 18.3818 59.4902 17.0968 59.4902 15.7082C59.4902 14.2989 59.7394 13.0139 60.2377 11.8118C60.7361 10.6098 61.4005 9.5942 62.2726 8.72373C63.124 7.85326 64.1414 7.16931 65.2834 6.6719C66.4255 6.17449 67.6506 5.92578 68.9587 5.92578C70.2668 5.92578 71.4919 6.15376 72.6547 6.63045C73.7967 7.08641 74.7934 7.74963 75.6447 8.6201C76.4961 9.46985 77.1605 10.5061 77.6589 11.7082C78.1572 12.8896 78.4064 14.2367 78.4064 15.7082ZM73.6514 15.7082C73.6514 14.9414 73.5268 14.2574 73.2776 13.6564C73.0285 13.0346 72.6962 12.5165 72.2602 12.0605C71.8241 11.6253 71.3258 11.273 70.7652 11.045C70.2045 10.817 69.5816 10.6927 68.9379 10.6927C68.2942 10.6927 67.6921 10.817 67.1107 11.045C66.5501 11.273 66.0517 11.6253 65.6157 12.0605C65.2004 12.4958 64.8682 13.0346 64.619 13.6564C64.3698 14.2782 64.266 14.9621 64.266 15.7082C64.266 16.4129 64.3906 17.0761 64.619 17.6979C64.8682 18.2989 65.2004 18.8378 65.6157 19.2938C66.0309 19.7497 66.5293 20.102 67.1107 20.3508C67.6921 20.5995 68.2942 20.7445 68.9379 20.7445C69.5816 20.7445 70.1838 20.6202 70.7652 20.3922C71.3258 20.1435 71.8241 19.8119 72.2602 19.3767C72.6962 18.9414 73.0285 18.4026 73.2776 17.7808C73.5268 17.1383 73.6514 16.4544 73.6514 15.7082Z" fill="#364FD9"/>
<path d="M36.5448 6.58987H32.3504C32.3089 6.58987 32.2673 6.63132 32.2673 6.6935V7.62615C31.769 7.27381 31.2291 6.96293 30.6893 6.6935C30.1286 6.42406 29.568 6.21681 28.9866 6.07173C28.4052 5.92665 27.803 5.84375 27.2009 5.84375C25.8927 5.84375 24.6677 6.09246 23.5256 6.56914C22.3836 7.04583 21.3662 7.70905 20.5148 8.57952C19.6635 9.44999 18.9783 10.4655 18.4799 11.6884C17.9816 12.8904 17.7324 14.2169 17.7324 15.6469C17.7324 17.1806 17.9816 18.5692 18.4799 19.7713C18.9783 20.9941 19.6635 22.0097 20.5148 22.8387C21.3869 23.6677 22.3836 24.3102 23.5256 24.7454C24.7715 25.2221 26.1419 25.4501 27.5746 25.4087C27.8446 25.3879 28.1145 25.3672 28.3844 25.3258C29.1735 25.1807 29.9417 24.932 30.6685 24.5796C31.2291 24.3309 31.7482 24.0201 32.2466 23.6677C32.7449 23.3154 33.2225 22.9423 33.6793 22.5278L35.5065 25.0563H36.6486V6.6935C36.6486 6.63132 36.607 6.58987 36.5448 6.58987ZM31.8936 17.5744C31.6444 18.1754 31.3122 18.7143 30.8761 19.191C30.4401 19.647 29.9417 20.02 29.3811 20.3102C28.8205 20.5796 28.1976 20.7247 27.5539 20.7247C26.9102 20.7247 26.308 20.6003 25.7266 20.3931C25.166 20.1858 24.6677 19.8542 24.2524 19.419C23.8371 19.0045 23.5049 18.4656 23.2557 17.8438C23.0065 17.2221 22.8819 16.4967 22.8819 15.6884C22.8819 14.8801 23.0065 14.1754 23.2557 13.5329C23.5049 12.9112 23.8163 12.3723 24.2524 11.9578C24.6677 11.5433 25.166 11.2117 25.7266 11.0044C26.2873 10.7764 26.9102 10.6728 27.5539 10.6728C28.1976 10.6728 28.7997 10.8179 29.3811 11.0873C29.9417 11.3775 30.4401 11.7505 30.8761 12.2065C31.2914 12.6832 31.6444 13.2013 31.8936 13.8231C32.1428 14.4241 32.2673 15.0459 32.2673 15.6884C32.2673 16.3516 32.1428 16.9734 31.8936 17.5744Z" fill="#364FD9"/>
<path d="M98.9408 6.44598H94.7465C94.7049 6.44598 94.6634 6.48744 94.6634 6.52889V7.42009C94.2481 7.15065 93.8121 6.88122 93.3553 6.67397C92.7946 6.40453 92.234 6.19728 91.6526 6.0522C91.0712 5.90712 90.4691 5.82422 89.8669 5.82422C88.5587 5.82422 87.3337 6.07293 86.1916 6.57034C85.0496 7.06775 84.0322 7.75169 83.1808 8.62217C82.3295 9.49264 81.6443 10.5289 81.1459 11.731C80.6476 12.9331 80.3984 14.2181 80.3984 15.6067C80.3984 17.1196 80.6476 18.4875 81.1459 19.6896C81.6443 20.8917 82.3087 21.928 83.1808 22.757C84.0529 23.586 85.0496 24.2285 86.1916 24.6845C87.3337 25.1404 88.5587 25.3684 89.8669 25.3684C90.2614 25.3684 90.6767 25.3477 91.1335 25.3062C91.5903 25.2648 92.0264 25.1819 92.4417 25.0575C92.8569 24.9332 93.2515 24.7881 93.5837 24.6016C93.9367 24.415 94.2066 24.1663 94.3935 23.8554C94.2689 24.3321 94.1028 24.7881 93.8744 25.2026C93.6667 25.6171 93.376 26.0109 93.023 26.3425C92.6701 26.6741 92.234 26.9228 91.7149 27.1094C91.1958 27.2959 90.5729 27.3995 89.8254 27.3995L87.4998 27.3581V31.9384L89.8046 31.9591C91.0712 31.9591 92.2755 31.7104 93.3968 31.2337C94.5181 30.7363 95.494 30.0731 96.3453 29.2234C97.1759 28.3736 97.8403 27.3995 98.3387 26.2596C98.8162 25.1197 99.0654 23.9176 99.0654 22.6326V6.54961C99.0447 6.48744 98.9824 6.44598 98.9408 6.44598ZM93.8121 17.5756C93.5629 18.1766 93.2307 18.7155 92.7946 19.1922C92.3794 19.6482 91.8603 20.0212 91.2996 20.3114C90.739 20.5808 90.1161 20.7259 89.4724 20.7259C88.8287 20.7259 88.2265 20.6015 87.6451 20.3735C87.0845 20.1248 86.5862 19.7932 86.1501 19.358C85.7348 18.9228 85.4026 18.4046 85.1534 17.7829C84.925 17.1611 84.8004 16.4771 84.8004 15.7103C84.8004 14.902 84.925 14.1973 85.1534 13.5548C85.4026 12.9331 85.7348 12.3942 86.1501 11.9797C86.5654 11.5652 87.0637 11.2336 87.6451 11.0263C88.2058 10.7983 88.8287 10.6947 89.4724 10.6947C90.1161 10.6947 90.7182 10.8398 91.2996 11.1092C91.8603 11.3994 92.3794 11.7724 92.7946 12.2284C93.2307 12.7051 93.5629 13.2232 93.8121 13.845C94.0613 14.446 94.1858 15.0678 94.1858 15.7103C94.1858 16.3528 94.0613 16.9746 93.8121 17.5756Z" fill="#364FD9"/>
<path d="M15.2098 10.8981V5.91612H7.41792V0.290616C7.3348 0.269858 7.25169 0.228341 7.16858 0.207583C6.69067 0.062275 6.21277 0 5.6933 0C5.34007 0 4.98684 0.062275 4.61282 0.166067C4.28037 0.269858 3.94791 0.415166 3.65701 0.643508C3.36611 0.851091 3.13755 1.12095 2.95054 1.45308C2.76354 1.78522 2.68042 2.15886 2.68042 2.61555C2.68042 3.09299 2.74276 3.52891 2.86743 3.96484C2.9921 4.40076 3.22066 4.83669 3.49078 5.31413C3.98947 6.18598 5.23618 7.84664 6.06732 8.78077L5.34007 9.50731C3.98947 8.46939 2.32719 6.60114 1.80773 5.91612H0V10.8981H2.43108V16.7104C2.43108 17.9144 2.65965 19.0561 3.11677 20.1148C3.5739 21.1735 4.19725 22.1076 5.00761 22.8964C5.7972 23.706 6.73223 24.3287 7.79193 24.7854C8.85163 25.2421 9.99445 25.4705 11.1996 25.4705H15.2098V20.4885H11.2204C10.7009 20.4885 10.2022 20.3847 9.74511 20.1771C9.28798 19.9695 8.87241 19.6996 8.53995 19.3675C8.2075 19.0146 7.93738 18.6202 7.72959 18.1635C7.54259 17.7068 7.4387 17.2086 7.4387 16.6897V10.8774H15.2098V10.8981Z" fill="#364FD9"/>
</svg>
